<svg width="24" height="24" xmlns="http://www.w3.org/2000/svg" fill="none">
 <g>
  <title>Layer 1</title>
  <path opacity="0.2" d="m15,3.75c0.488,0.64855 0.7512,1.43842 0.75,2.25l0,0.75l-7.5,0l0,-0.75c-0.00123,-0.81158 0.26205,-1.60145 0.74995,-2.25l-3.74995,0c-0.09849,0 -0.19602,0.01939 -0.28702,0.05708c-0.09099,0.03769 -0.17367,0.09294 -0.24332,0.16258c-0.06964,0.06965 -0.12489,0.15233 -0.16258,0.24332c-0.03769,0.091 -0.05708,0.18853 -0.05708,0.28702l0,15.75c0,0.0985 0.01939,0.196 0.05708,0.287c0.03769,0.091 0.09294,0.1737 0.16258,0.2433c0.06965,0.0697 0.15233,0.1249 0.24332,0.1626c0.091,0.0377 0.18853,0.0571 0.28702,0.0571l13.5,0c0.0985,0 0.196,-0.0194 0.287,-0.0571c0.091,-0.0377 0.1737,-0.0929 0.2433,-0.1626c0.0697,-0.0696 0.1249,-0.1523 0.1626,-0.2433c0.0377,-0.091 0.0571,-0.1885 0.0571,-0.287l0,-15.75c0,-0.09849 -0.0194,-0.19602 -0.0571,-0.28702c-0.0377,-0.09099 -0.0929,-0.17367 -0.1626,-0.24332c-0.0696,-0.06964 -0.1523,-0.12489 -0.2433,-0.16258c-0.091,-0.03769 -0.1885,-0.05708 -0.287,-0.05708l-3.75,0z" fill="#6E7485" id="svg_1"/>
  <path d="m9,14.25l6,0" stroke="currentColor" stroke-width="1.5" stroke-linecap="round" stroke-linejoin="round" id="svg_2"/>
  <path d="m9,11.25l6,0" stroke="currentColor" stroke-width="1.5" stroke-linecap="round" stroke-linejoin="round" id="svg_3"/>
  <path d="m15.0002,3.75l3.7498,0c0.1989,0 0.3897,0.07902 0.5303,0.21967c0.1407,0.14065 0.2197,0.33142 0.2197,0.53033l0,15.75c0,0.1989 -0.079,0.3897 -0.2197,0.5303c-0.1406,0.1407 -0.3314,0.2197 -0.5303,0.2197l-13.5,0c-0.19891,0 -0.38968,-0.079 -0.53033,-0.2197c-0.14065,-0.1406 -0.21967,-0.3314 -0.21967,-0.5303l0,-15.75c0,-0.19891 0.07902,-0.38968 0.21967,-0.53033c0.14065,-0.14065 0.33142,-0.21967 0.53033,-0.21967l3.7498,0" stroke="currentColor" stroke-width="1.5" stroke-linecap="round" stroke-linejoin="round" id="svg_4"/>
  <path d="m8.25,6.75l0,-0.75c0,-0.99456 0.39509,-1.94839 1.09835,-2.65165c0.70325,-0.70326 1.65705,-1.09835 2.65165,-1.09835c0.9946,0 1.9484,0.39509 2.6517,1.09835c0.7032,0.70326 1.0983,1.65709 1.0983,2.65165l0,0.75l-7.5,0z" stroke="currentColor" stroke-width="1.5" stroke-linecap="round" stroke-linejoin="round" id="svg_5"/>
 </g>

</svg>