<svg width="64" height="64" xmlns="http://www.w3.org/2000/svg" fill="none">
 <g>
  <title>Layer 1</title>
  <path id="svg_1" fill="currentColor" d="m18.0183,19.5c5.4139,0 9.6676,-4.29 9.6676,-9.75c0,-5.46 -4.2537,-9.75 -9.6676,-9.75c-5.4138,0 -9.66755,4.29 -9.66755,9.75c0,5.46 4.25375,9.75 9.66755,9.75zm17.9817,17.16c-2.5136,-9.945 -12.5678,-16.185 -22.4288,-13.65c-6.57391,1.755 -11.7944,6.825 -13.53456,13.65c-0.19335,0.975 0.3867,2.145 1.54681,2.34c0.19335,0 0.3867,0 0.3867,0l32.09635,0c1.1601,0 1.9335,-0.78 1.9335,-1.95c0,-0.195 0,-0.39 0,-0.39z"/>
  <text fill="#000000" stroke="#000" stroke-width="0" x="-56.54527" y="49.19689" id="svg_2" font-size="24" font-family="Noto Sans JP" text-anchor="start" xml:space="preserve"/>
 </g>

</svg>