<svg width="27" height="27" xmlns="http://www.w3.org/2000/svg" fill="none">
 <g>
  <title>Layer 1</title>
  <path id="svg_1" stroke-linejoin="round" stroke-linecap="round" stroke-width="1.3" stroke="currentColor" d="m10.0971,22.7188l-5.04864,0c-0.22316,0 -0.43718,-0.0887 -0.59498,-0.2465c-0.1578,-0.1578 -0.24645,-0.3718 -0.24645,-0.595l0,-4.7c0,-0.1105 0.02177,-0.2199 0.06405,-0.322c0.04229,-0.1021 0.10427,-0.1949 0.1824,-0.273l12.62152,-12.6215c0.1578,-0.15779 0.3718,-0.24644 0.5949,-0.24644c0.2232,0 0.4372,0.08865 0.595,0.24644l4.7001,4.70006c0.1578,0.1578 0.2464,0.37183 0.2464,0.59499c0,0.22316 -0.0886,0.43718 -0.2464,0.59498l-12.8679,12.86797z"/>
  <path id="svg_2" stroke-linejoin="round" stroke-linecap="round" stroke-width="1.3" stroke="currentColor" d="m14.3047,6.73145l5.89,5.89005"/>
  <path id="svg_3" stroke-linejoin="round" stroke-linecap="round" stroke-width="1.3" stroke="currentColor" d="m22.7177,22.7188l-12.6214,0l-5.83653,-5.8365"/>
 </g>

</svg>