<svg width="37" height="37" viewBox="0 0 37 37" fill="none" xmlns="http://www.w3.org/2000/svg">
<path d="M10.8437 9.47772V3.41379C10.8437 2.0807 11.8231 1 13.0312 1H23.9687C25.1769 1 26.1562 2.0807 26.1562 3.41379V9.47772M1 17.8966V33.5862C1 34.9193 1.97939 36 3.1875 36H33.8125C35.0207 36 36 34.9193 36 33.5862V17.8966M1 17.8966V11.8915C1 10.5584 1.97939 9.47772 3.1875 9.47772H33.8125C35.0207 9.47772 36 10.5584 36 11.8915V17.8966M1 17.8966L16.9639 24.5024C17.9542 24.912 19.0458 24.912 20.0361 24.5024L36 17.8966" stroke="#2374EE"/>
</svg>
