<svg width="31" height="32" viewBox="0 0 31 32" fill="none" xmlns="http://www.w3.org/2000/svg">
<path d="M3.26592 6.59701L7.73545 8.6724V13.5439C7.73545 13.7957 7.94299 14 8.19871 14H22.8748C23.1305 14 23.338 13.7957 23.338 13.5439V8.6724L27.146 6.90444V10.1685C26.6077 10.3573 26.2186 10.8591 26.2186 11.4539C26.2186 12.2092 26.8421 12.8232 27.6093 12.8232C28.3765 12.8232 29 12.2092 29 11.4539C29 10.8591 28.6109 10.3573 28.0726 10.1685V6.18467C28.0726 6.10439 28.0457 6.03323 28.0096 5.96755C28.0003 5.95022 27.9892 5.93653 27.9771 5.92102C27.9373 5.8672 27.8891 5.82341 27.8298 5.79148C27.8224 5.78692 27.8187 5.7778 27.8104 5.77415L15.7378 0.0451569C15.6099 -0.0150523 15.4626 -0.0150523 15.3348 0.0451569L3.26221 5.77415C3.10192 5.84987 2.99908 6.01134 3.00001 6.18649C3.00186 6.36256 3.1047 6.5222 3.26592 6.59701ZM22.4115 13.0877H8.66197V8.38321V6.66543L10.0138 6.45287C13.6781 5.87267 17.3944 5.87267 21.0588 6.45287L22.4106 6.66543V8.38321L22.4115 13.0877ZM27.6093 11.9109C27.3536 11.9109 27.1451 11.7057 27.1451 11.4539C27.1451 11.2021 27.3536 10.9968 27.6093 10.9968C27.865 10.9968 28.0735 11.2021 28.0735 11.4539C28.0735 11.7057 27.865 11.9109 27.6093 11.9109ZM15.5367 0.961978L26.5327 6.18011L23.338 7.66344V6.27589C23.338 6.2166 23.3251 6.16004 23.3038 6.10713C23.2963 6.08888 23.2834 6.07337 23.2732 6.05604C23.2556 6.02411 23.237 5.99401 23.212 5.96755C23.1963 5.95113 23.1778 5.93927 23.1592 5.92467C23.1333 5.90369 23.1064 5.88453 23.0758 5.86994C23.0536 5.85899 23.0304 5.85352 23.0063 5.84622C22.986 5.83983 22.9684 5.82889 22.9461 5.82524L21.2052 5.55156C17.4417 4.95585 13.6272 4.95585 9.86552 5.55156L8.12366 5.82524C8.10235 5.82889 8.08475 5.83983 8.06436 5.84622C8.04027 5.85352 8.01711 5.85899 7.99487 5.86994C7.9643 5.88453 7.93836 5.9046 7.91241 5.92467C7.89481 5.93927 7.87535 5.95113 7.8596 5.96755C7.83459 5.99401 7.81698 6.02502 7.79938 6.05604C7.78919 6.07337 7.77622 6.08797 7.7688 6.10713C7.74749 6.16004 7.73452 6.21568 7.73452 6.27589V7.66344L4.53988 6.18011L15.5367 0.961978Z" fill="#2374EE"/>
<path d="M0.455882 32H10.4853H20.5147H30.5441C30.7958 32 31 31.7884 31 31.5278V21.1389C31 20.8782 30.7958 20.6667 30.5441 20.6667H20.9706V15.4722C20.9706 15.2116 20.7664 15 20.5147 15H10.4853C10.2336 15 10.0294 15.2116 10.0294 15.4722V23.0278H0.455882C0.204235 23.0278 0 23.2393 0 23.5V31.5278C0 31.7884 0.204235 32 0.455882 32ZM30.0882 21.6111V31.0556H20.9706V21.6111H30.0882ZM10.9412 15.9444H20.0588V21.1389V31.0556H10.9412V23.5V15.9444ZM0.911765 23.9722H10.0294V31.0556H0.911765V23.9722Z" fill="#2374EE"/>
</svg>
