<svg width="37" height="37" xmlns="http://www.w3.org/2000/svg" fill="currentColor">
 <g>
  <title>Layer 1</title>
  <path id="svg_1" fill="currentColor" d="m36.097,31.7371l-7.8272,-7.8271c1.6173,-2.4374 2.5639,-5.3558 2.5639,-8.4932c0,-8.50081 -6.916,-15.4168 -15.4169,-15.4168c-8.50081,0 -15.4168,6.91599 -15.4168,15.4168c0,8.5009 6.91599,15.4169 15.4168,15.4169c3.1374,0 6.0558,-0.9466 8.4932,-2.5639l7.8271,7.8272c1.2025,1.204 3.1573,1.204 4.3599,0c1.204,-1.2041 1.204,-3.1559 0,-4.3599zm-31.47195,-16.3203c0,-5.95087 4.84088,-10.79175 10.79175,-10.79175c5.9509,0 10.7918,4.84088 10.7918,10.79175c0,5.9509 -4.8409,10.7918 -10.7918,10.7918c-5.95087,0 -10.79175,-4.8409 -10.79175,-10.7918z"/>
 </g>

</svg>