<svg width="38" height="38" xmlns="http://www.w3.org/2000/svg" fill="currentColor">
 <g>
  <title>Layer 1</title>
  <path id="svg_1" fill="currentColor" d="m4.75,0c-2.62335,0 -4.75,2.12665 -4.75,4.75l0,7.125c0,2.6234 2.12665,4.75 4.75,4.75l7.125,0c2.6234,0 4.75,-2.1266 4.75,-4.75l0,-7.125c0,-2.62335 -2.1266,-4.75 -4.75,-4.75l-7.125,0zm21.375,0c-2.6234,0 -4.75,2.12665 -4.75,4.75l0,7.125c0,2.6234 2.1266,4.75 4.75,4.75l7.125,0c2.6234,0 4.75,-2.1266 4.75,-4.75l0,-7.125c0,-2.62335 -2.1266,-4.75 -4.75,-4.75l-7.125,0zm-26.125,26.125c0,-2.6234 2.12665,-4.75 4.75,-4.75l7.125,0c2.6234,0 4.75,2.1266 4.75,4.75l0,7.125c0,2.6234 -2.1266,4.75 -4.75,4.75l-7.125,0c-2.62335,0 -4.75,-2.1266 -4.75,-4.75l0,-7.125zm26.125,-4.75c-2.6234,0 -4.75,2.1266 -4.75,4.75l0,7.125c0,2.6234 2.1266,4.75 4.75,4.75l7.125,0c2.6234,0 4.75,-2.1266 4.75,-4.75l0,-7.125c0,-2.6234 -2.1266,-4.75 -4.75,-4.75l-7.125,0z"/>
 </g>

</svg>