<svg width="27" height="27" viewBox="0 0 27 27" fill="none" xmlns="http://www.w3.org/2000/svg">
<path d="M22.7185 5.89014L4.20703 5.89015" stroke="#8C94A3" stroke-width="1.3" stroke-linecap="round" stroke-linejoin="round"/>
<path d="M10.9395 10.9385V17.6699" stroke="#8C94A3" stroke-width="1.3" stroke-linecap="round" stroke-linejoin="round"/>
<path d="M15.9863 10.9385V17.6699" stroke="#8C94A3" stroke-width="1.3" stroke-linecap="round" stroke-linejoin="round"/>
<path d="M21.0364 5.89014V21.8773C21.0364 22.1005 20.9478 22.3145 20.79 22.4723C20.6322 22.6301 20.4181 22.7188 20.195 22.7188H6.73206C6.5089 22.7188 6.29487 22.6301 6.13707 22.4723C5.97928 22.3145 5.89062 22.1005 5.89062 21.8773V5.89014" stroke="#8C94A3" stroke-width="1.3" stroke-linecap="round" stroke-linejoin="round"/>
<path d="M17.6702 5.89014V4.20728C17.6702 3.76095 17.4929 3.33291 17.1773 3.01731C16.8617 2.70172 16.4336 2.52441 15.9873 2.52441H10.9387C10.4924 2.52441 10.0644 2.70172 9.74876 3.01731C9.43316 3.33291 9.25586 3.76095 9.25586 4.20728V5.89014" stroke="#8C94A3" stroke-width="1.3" stroke-linecap="round" stroke-linejoin="round"/>
</svg>
