<svg width="35" height="35" viewBox="0 0 35 35" fill="none" xmlns="http://www.w3.org/2000/svg">
<path d="M0.500042 18.5H1.83004V34.5C1.83004 34.776 2.05404 35 2.33004 35H15H20H32.67C32.946 35 33.17 34.776 33.17 34.5V18.5H34.5C34.653 18.5 34.798 18.43 34.893 18.309C34.988 18.188 35.022 18.031 34.986 17.882L33.156 10.382C33.101 10.158 32.9 10 32.67 10H21.82L18 3.798V0.5C18 0.224 17.776 0 17.5 0H14.895C14.619 0 14.395 0.224 14.395 0.5C14.395 0.776 14.619 1 14.895 1H17V3.798L13.18 10H2.33004C2.10004 10 1.89904 10.158 1.84404 10.381L0.0140426 17.881C-0.0219573 18.03 0.0120426 18.188 0.107042 18.308C0.202042 18.43 0.347042 18.5 0.500042 18.5ZM15.5 34V28.542H19.5V34H15.5ZM32.17 34H20.5V28.042C20.5 27.766 20.276 27.542 20 27.542H15C14.724 27.542 14.5 27.766 14.5 28.042V34H2.83004V18.5H8.84002C9.01302 18.5 9.17402 18.41 9.26602 18.262L13.886 10.762C13.886 10.762 13.886 10.761 13.886 10.76L17.5 4.894L21.114 10.761C21.114 10.761 21.114 10.762 21.114 10.763L25.734 18.263C25.826 18.41 25.987 18.5 26.16 18.5H32.17V34ZM32.277 11L33.863 17.5H32.67H26.44L22.436 11H32.277ZM2.72304 11H12.564L8.56102 17.5H2.33004H1.13704L2.72304 11Z" fill="#2374EE"/>
</svg>
